<?xml version="1.0" standalone="no"?>
<!DOCTYPE svg PUBLIC "-//W3C//DTD SVG 20010904//EN"
 "http://www.w3.org/TR/2001/REC-SVG-20010904/DTD/svg10.dtd">
<svg version="1.0" xmlns="http://www.w3.org/2000/svg"
 width="1008.000000pt" height="1008.000000pt" viewBox="0 0 1008.000000 1008.000000"
 preserveAspectRatio="xMidYMid meet">
<metadata>
Created by potrace 1.14, written by Peter Selinger 2001-2017
</metadata>
<g transform="translate(0.000000,1008.000000) scale(0.100000,-0.100000)"
fill="#000000" stroke="none">
<path d="M6594 9244 c-136 -47 -136 -243 0 -297 20 -8 191 -15 425 -16 l105
-1 -1421 -1420 c-781 -781 -1422 -1420 -1425 -1420 -3 0 -261 255 -574 568
-313 312 -589 583 -614 602 -24 19 -52 43 -62 53 -10 9 -20 17 -23 17 -9 0
-70 44 -73 53 -2 4 -8 7 -13 7 -5 0 -32 15 -61 34 -43 26 -196 105 -218 111
-3 1 -18 7 -35 14 -69 29 -230 78 -280 86 -23 4 -71 13 -100 20 -82 18 -365
25 -485 12 -96 -10 -188 -27 -282 -52 -10 -3 -26 -7 -35 -9 -173 -44 -487
-204 -599 -304 -11 -9 -41 -35 -68 -56 -131 -106 -283 -285 -383 -451 -51 -87
-123 -225 -123 -238 0 -3 -8 -22 -17 -43 -9 -22 -17 -43 -18 -49 -1 -5 -4 -17
-7 -25 -9 -21 -32 -95 -29 -95 1 0 -5 -22 -13 -50 -15 -51 -34 -155 -43 -235
-7 -61 -6 -331 0 -405 5 -54 15 -113 32 -185 3 -14 8 -36 11 -50 13 -67 69
-227 116 -329 11 -25 20 -48 19 -50 -2 -2 1 -7 6 -10 5 -3 14 -17 21 -31 43
-89 149 -243 210 -306 6 -7 12 -15 12 -19 0 -12 191 -195 252 -241 35 -27 65
-51 68 -54 3 -3 23 -17 45 -30 22 -13 42 -26 45 -29 32 -36 366 -188 451 -205
13 -3 40 -10 59 -16 45 -14 74 -20 174 -36 21 -3 48 -8 60 -11 35 -9 357 -11
421 -3 112 15 160 22 168 27 4 2 20 6 35 8 112 16 453 147 500 192 7 7 17 13
22 13 24 0 238 159 325 241 33 32 294 292 580 578 286 286 523 521 526 521 5
0 1324 -1315 1349 -1345 7 -9 -391 -414 -1406 -1429 -779 -779 -1419 -1414
-1422 -1411 -4 3 -5 54 -3 113 9 388 8 401 -38 460 -59 78 -182 72 -246 -12
-25 -33 -28 -45 -32 -149 -5 -136 -5 -134 0 -174 3 -18 2 -33 -2 -33 -12 0 -6
-643 6 -670 14 -33 51 -66 88 -80 36 -14 914 -30 965 -18 100 24 147 157 87
245 -37 55 -68 66 -191 69 -61 1 -129 3 -151 4 -22 1 -52 -1 -68 -3 -15 -2
-29 -2 -31 2 -2 3 -38 6 -80 5 -66 -1 -74 1 -63 14 29 36 2820 2822 2826 2822
4 0 261 -253 572 -562 310 -310 586 -581 613 -603 27 -22 54 -44 60 -50 7 -5
19 -14 28 -20 8 -5 42 -28 74 -49 74 -49 222 -128 294 -156 30 -12 69 -27 85
-34 17 -8 50 -19 75 -26 25 -7 57 -17 71 -22 15 -5 37 -11 50 -13 13 -2 34 -6
45 -8 23 -6 82 -16 124 -23 141 -21 411 -21 520 1 14 3 41 7 60 10 19 2 50 9
68 14 18 5 33 10 35 9 17 -3 207 60 292 97 33 14 77 33 98 42 20 9 37 20 37
25 0 4 7 8 15 8 8 0 47 21 87 47 219 141 320 235 519 481 67 82 222 375 235
442 0 3 4 12 7 20 12 29 58 195 62 225 2 16 4 30 5 30 2 0 8 34 15 85 3 25 8
59 11 77 13 81 6 352 -11 453 -2 14 -6 41 -9 60 -3 19 -13 62 -21 95 -9 33
-18 70 -20 82 -7 28 -52 158 -70 198 -43 98 -74 159 -117 228 -26 43 -48 82
-48 87 0 5 -3 10 -7 12 -5 2 -28 30 -53 63 -66 87 -77 100 -166 189 -91 92
-140 136 -152 136 -4 0 -13 9 -20 20 -7 11 -19 20 -26 20 -8 0 -16 4 -18 8 -3
10 -154 112 -164 112 -3 0 -18 8 -32 18 -31 21 -221 109 -252 117 -3 0 -27 8
-55 17 -91 31 -237 65 -315 74 -19 2 -51 6 -70 9 -42 5 -297 5 -360 0 -76 -7
-125 -15 -218 -35 -30 -7 -59 -13 -65 -14 -7 -2 -19 -5 -27 -8 -8 -3 -53 -18
-100 -33 -159 -50 -376 -166 -525 -280 -75 -57 -119 -100 -678 -657 l-558
-556 -680 680 -680 680 1420 1421 1420 1421 -2 -270 -2 -271 29 -37 c76 -100
233 -82 278 33 5 14 12 136 14 271 13 730 14 705 -29 752 -51 58 -64 61 -265
65 -596 10 -741 10 -778 -3z m-4474 -1898 c42 -6 61 -9 115 -20 17 -4 86 -20
120 -29 85 -23 337 -134 355 -157 3 -3 23 -17 45 -30 104 -62 124 -81 757
-714 l540 -539 -569 -566 c-312 -312 -588 -583 -613 -602 -134 -107 -304 -198
-471 -253 -111 -36 -125 -40 -264 -60 -86 -13 -381 -16 -401 -3 -5 3 -31 7
-59 10 -51 6 -195 45 -275 75 -110 40 -350 173 -350 193 0 5 -5 9 -11 9 -14 0
-127 97 -181 155 -91 98 -110 121 -166 203 -33 48 -74 116 -92 152 -29 60 -89
202 -95 225 -1 6 -5 17 -8 25 -9 24 -35 141 -42 190 -4 25 -9 56 -12 70 -8 44
-10 304 -2 340 4 19 10 58 13 85 3 28 10 65 15 83 5 18 10 33 9 35 -1 4 23 92
29 107 4 8 7 17 8 20 1 3 7 18 13 33 7 16 12 35 12 43 0 8 5 14 12 14 6 0 9 3
5 6 -15 16 123 248 213 359 59 72 214 225 229 225 4 0 18 11 31 25 13 14 29
25 36 25 7 0 14 4 16 9 5 13 128 86 215 127 70 32 275 105 291 103 4 -1 9 0
12 1 20 7 95 20 160 26 36 4 66 8 68 9 5 5 248 -3 292 -9z m6230 -1581 c87 -8
123 -13 130 -15 3 -1 8 -2 11 -2 4 1 22 -3 40 -9 19 -5 46 -11 60 -14 35 -6
142 -41 187 -61 104 -46 231 -111 242 -125 3 -4 19 -15 36 -25 184 -112 401
-362 509 -589 42 -88 93 -225 101 -275 3 -14 7 -32 10 -40 17 -46 37 -222 38
-325 0 -161 -15 -260 -68 -465 -2 -8 -14 -41 -26 -72 -12 -32 -21 -61 -20 -64
1 -4 -2 -10 -7 -13 -4 -3 -23 -35 -40 -71 -42 -85 -76 -144 -85 -148 -5 -2 -8
-10 -8 -17 0 -7 -3 -15 -7 -17 -5 -1 -27 -28 -51 -59 -67 -89 -217 -237 -281
-279 -13 -8 -29 -20 -35 -25 -25 -24 -147 -95 -226 -132 -116 -55 -261 -103
-360 -118 -14 -2 -36 -7 -50 -10 -98 -22 -327 -22 -465 0 -80 12 -103 17 -125
24 -27 9 -108 33 -125 37 -28 6 -159 62 -225 97 -97 51 -189 114 -274 187 -16
14 -278 274 -583 578 -475 475 -552 556 -541 569 16 20 1043 1045 1100 1099
50 47 170 136 243 181 102 61 299 141 410 165 78 16 90 19 115 23 14 3 70 8
125 11 55 4 101 8 103 9 1 1 17 1 35 -1 17 -1 66 -6 107 -9z"/>
</g>
</svg>
